<svg width="121" height="122" viewBox="0 0 121 122" fill="none" xmlns="http://www.w3.org/2000/svg">
<path d="M114.621 54.2219C114.621 84.1591 90.3361 108.444 60.3989 108.444C30.4548 108.444 6.177 84.1591 6.177 54.2219C6.177 24.2778 30.4548 0 60.3989 0C90.3361 0 114.621 24.2778 114.621 54.2219Z" fill="#FFCC4D"/>
<path d="M87.0389 54.659C86.5306 54.1134 85.7715 54.0795 85.2259 54.5608C85.114 54.659 74.0324 64.3885 60.399 64.3885C46.7995 64.3885 35.684 54.659 35.5722 54.5608C35.0232 54.0795 34.2675 54.1202 33.7591 54.659C33.2542 55.2013 33.1424 56.0959 33.4914 56.7873C33.8574 57.5159 42.6719 74.5551 60.399 74.5551C78.1262 74.5551 86.944 57.5159 87.3066 56.7873C87.6557 56.0925 87.5439 55.2013 87.0389 54.659Z" fill="#664500"/>
<path d="M44.7865 78.4658L39.571 70.9459C39.571 70.9459 37.7309 68.0078 34.7893 69.8446C31.8512 71.6779 33.6913 74.6195 33.6913 74.6195L39.649 86.0739C39.649 86.0739 40.137 88.6765 36.538 85.7655C34.9689 84.498 35.8704 85.2131 35.8704 85.2131L34.3793 83.9897L15.771 68.7127C15.771 68.7127 13.3683 66.1778 11.1655 68.855C8.96954 71.5356 11.9212 73.3995 11.9212 73.3995L29.5196 87.8564C29.113 88.2631 27.8862 89.666 27.4863 90.1032L8.65437 74.65C8.65437 74.65 6.24828 72.1117 4.05229 74.7889C1.84953 77.4695 4.80462 79.3334 4.80462 79.3334L23.6298 94.7934C23.2807 95.2678 22.3996 96.4065 22.0743 96.8742L5.83484 83.5424C5.83484 83.5424 3.42874 81.0075 1.23275 83.6847C-0.973399 86.3653 1.98508 88.2326 1.98508 88.2326L19.248 102.412C19.0311 103.015 18.0178 104.601 17.8585 105.19L5.41462 94.9832C5.41462 94.9832 3.01191 92.4348 0.815923 95.1221C-1.38684 97.8027 1.56825 99.6666 1.56825 99.6666L21.6642 116.164L23.0028 117.268C31.8817 124.558 44.9932 123.27 52.2827 114.391C58.9621 106.248 58.4402 94.5562 51.4693 87.0465C48.9988 84.3964 46.8605 81.4447 44.7865 78.4658ZM119.985 95.1255C117.789 92.4381 115.387 94.9866 115.387 94.9866L102.943 105.194C102.784 104.604 101.77 103.015 101.553 102.415L118.816 88.236C118.816 88.236 121.775 86.3687 119.572 83.6881C117.376 81.0109 114.97 83.5458 114.97 83.5458L98.7305 96.8776C98.4051 96.4065 97.5206 95.2678 97.175 94.7968L116 79.3368C116 79.3368 118.959 77.4729 116.756 74.7923C114.56 72.1151 112.157 74.6534 112.157 74.6534L93.3218 90.1066C92.9253 89.6694 91.6986 88.2665 91.2885 87.8598L108.887 73.4029C108.887 73.4029 111.835 71.539 109.643 68.8584C107.44 66.1812 105.037 68.7161 105.037 68.7161L86.4289 83.9931L84.9412 85.2165C84.9412 85.2165 88.2962 82.3664 84.2736 85.7689C80.2476 89.1713 81.1626 86.0772 81.1626 86.0772L87.1202 74.6229C87.1202 74.6229 88.9604 71.6813 86.0222 69.848C83.0773 68.0112 81.2405 70.9493 81.2405 70.9493L76.0285 78.4692C73.9511 81.4481 71.8127 84.3998 69.3388 87.0532C62.3645 94.5664 61.8427 106.255 68.5289 114.398C75.8149 123.277 88.9299 124.565 97.8087 117.275L99.1507 116.17L119.247 99.6734C119.23 99.67 122.185 97.8061 119.985 95.1255Z" fill="#F4900C"/>
<path d="M93.1931 37.2199C93.0202 36.8065 88.8384 27.1109 80.2442 27.1109C71.6568 27.1109 67.4749 36.8065 67.3021 37.2199C67.031 37.857 67.2072 38.5958 67.7189 39.0364C68.2239 39.4701 68.9559 39.4837 69.4913 39.077C69.5252 39.0465 73.1547 36.3117 80.2442 36.3117C87.2896 36.3117 90.9157 39.0126 91.0005 39.077C91.2546 39.277 91.5596 39.3786 91.8646 39.3786C92.1866 39.3786 92.5051 39.2634 92.7694 39.0431C93.2879 38.606 93.4642 37.857 93.1931 37.2199ZM55.9155 37.2199C55.7393 36.8065 51.5608 27.1109 42.9666 27.1109C34.3792 27.1109 30.1974 36.8065 30.0212 37.2199C29.7534 37.857 29.9263 38.5958 30.4414 39.0364C30.9497 39.4701 31.6817 39.4837 32.2138 39.077C32.251 39.0465 35.8771 36.3117 42.9666 36.3117C50.0155 36.3117 53.6382 39.0126 53.7195 39.077C53.9771 39.277 54.2787 39.3786 54.5837 39.3786C54.9056 39.3786 55.2242 39.2634 55.4885 39.0431C56.0104 38.606 56.1832 37.857 55.9155 37.2199Z" fill="#664500"/>
<path d="M37.2939 86.3416C37.2939 86.3416 28.5065 97.5723 38.9341 111.623C39.6525 112.588 41.4757 112.117 40.6997 110.985C39.8525 109.752 31.3803 97.7824 39.3441 87.0702C39.3441 87.0702 38.053 86.9109 37.2939 86.3416ZM83.3249 86.6737C83.3249 86.6737 92.1156 97.9044 81.6847 111.955C80.9662 112.92 79.143 112.449 79.9191 111.318C80.7663 110.084 89.2384 98.1145 81.2746 87.4023C81.2712 87.4057 82.5658 87.2464 83.3249 86.6737Z" fill="#B55005"/>
</svg>
